<svg id="Слой_1" data-name="Слой 1" xmlns="http://www.w3.org/2000/svg" viewBox="0 0 480 440"><defs><style>.cls-1{fill:#f66;}</style></defs><title>heart</title><path class="cls-1" d="M348,20A132.26,132.26,0,0,0,240,76.22,132.26,132.26,0,0,0,132,20C61.68,20,0,85.43,0,160c0,72.68,41,147.54,118.69,216.48a638.55,638.55,0,0,0,117.64,82.63,8.05,8.05,0,0,0,7.34,0,638.26,638.26,0,0,0,117.6-82.63C439,307.54,480,232.68,480,160,480,85.43,418.32,20,348,20ZM240,442.9C210.62,426.69,16,313.41,16,160,16,94,70.2,36,132,36A116.22,116.22,0,0,1,233,95.13a8.34,8.34,0,0,0,13.94,0A116.22,116.22,0,0,1,348,36c61.8,0,116,58,116,124C464,313.41,269.38,426.69,240,442.9Z" transform="translate(0 -20)"/></svg>