<svg id="Слой_1" data-name="Слой 1" xmlns="http://www.w3.org/2000/svg" viewBox="0 0 480 440"><defs><style>.cls-1{fill:#f66;}</style></defs><title>heartactiv</title><path class="cls-1" d="M348,36c61.8,0,116,58,116,124,0,153.41-194.62,266.69-224,282.9C210.62,426.69,16,313.41,16,160,16,94,70.2,36,132,36A116.22,116.22,0,0,1,233,95.13a8.34,8.34,0,0,0,13.94,0A116.22,116.22,0,0,1,348,36Z" transform="translate(0 -20)"/><path class="cls-1" d="M480,160c0,72.68-41,147.54-118.73,216.48a638.26,638.26,0,0,1-117.6,82.63,8.05,8.05,0,0,1-7.34,0,638.55,638.55,0,0,1-117.64-82.63C41,307.54,0,232.68,0,160,0,85.43,61.68,20,132,20A132.26,132.26,0,0,1,240,76.22,132.26,132.26,0,0,1,348,20C418.32,20,480,85.43,480,160Zm-16,0c0-66-54.2-124-116-124A116.22,116.22,0,0,0,247,95.13a8.34,8.34,0,0,1-13.94,0A116.22,116.22,0,0,0,132,36C70.2,36,16,94,16,160c0,153.41,194.62,266.69,224,282.9C269.38,426.69,464,313.41,464,160Z" transform="translate(0 -20)"/></svg>