<svg xmlns="http://www.w3.org/2000/svg" viewBox="0 0 255.06 100.93"><defs><style>.cls-1{font-size:94px;font-family:CaviarDreams,Caviar Dreams}.cls-1,.cls-4{fill:#fff}.cls-2{fill:none;stroke:#fff;stroke-miterlimit:10}.cls-3{letter-spacing:-.01em}.cls-5{fill:#cdb67c}</style></defs><title>ZuwerLogo</title><g id="Слой_2" data-name="Слой 2"><g id="Слой_4" data-name="Слой 4"><text class="cls-1" transform="translate(0 83.72)">Z<tspan x="60.91" y="0" class="cls-2">u</tspan><tspan x="111.35" y="0" class="cls-3">w</tspan><tspan x="173.54" y="0">er</tspan></text></g><g id="Слой_10" data-name="Слой 10"><path d="M100.27,64.86c0,7.87-6.13,15.25-14,15.25s-14.5-7.38-14.5-15.25C84.77,69.61,88.77,61.61,100.27,64.86Z" class="cls-4"/></g><g id="Слой_11" data-name="Слой 11"><path d="M136.68,8.34A83.06,83.06,0,0,0,109,18.41,81.75,81.75,0,0,0,89.67,33.86,13.8,13.8,0,0,0,87.31,37c.06.1.25-.07,1-.87a58.41,58.41,0,0,1,6.4-5.9c1-.8,4.77-3.57,5.32-3.91l.21-.12.79.23a30.64,30.64,0,0,0,7.52,1c3.15,0,5.32-.39,6.46-1.24.54-.41.51-.45-.26-.36a26.88,26.88,0,0,1-8.91-.49c-1.29-.31-1.4-.37-.47-.27a33.82,33.82,0,0,0,19.34-3.32A81,81,0,0,0,134,16.18c2.77-1.82,4-2.58,5.7-3.6,3.94-2.32,12-5.24,11.9-5.31A124.81,124.81,0,0,0,136.68,8.34Z" class="cls-5"/></g></g></svg>