<svg id="Capa_1" data-name="Capa 1" xmlns="http://www.w3.org/2000/svg" viewBox="0 0 612 603.48"><defs><style>.cls-1{fill:#cdb67c;}</style></defs><title>store-new-badges</title><path class="cls-1" d="M608.07,333.26l-45-71.37a25.59,25.59,0,0,1-3.35-19l17.86-82.44a25.55,25.55,0,0,0-17.17-29.73l-80.32-25.76a25.55,25.55,0,0,1-14.8-12.41L426,17.9A25.54,25.54,0,0,0,393.75,6.16l-78.1,31.9a25.61,25.61,0,0,1-19.31,0L218.26,6.17A25.55,25.55,0,0,0,186,17.91L146.69,92.53a25.55,25.55,0,0,1-14.8,12.41L51.57,130.7a25.54,25.54,0,0,0-17.16,29.73l17.84,82.44a25.54,25.54,0,0,1-3.35,19l-45,71.37a25.54,25.54,0,0,0,6,33.8l66.66,51.68a25.5,25.5,0,0,1,9.66,16.73L97.65,519a25.53,25.53,0,0,0,26.29,22.06l84.28-3.26a25.58,25.58,0,0,1,18.16,6.6l62.46,56.68a25.56,25.56,0,0,0,34.33,0l62.47-56.68a25.53,25.53,0,0,1,18.15-6.6l84.28,3.26A25.55,25.55,0,0,0,514.37,519l11.42-83.57a25.58,25.58,0,0,1,9.66-16.73l66.66-51.68A25.54,25.54,0,0,0,608.07,333.26ZM235.23,407.92l-74.43-52,30.59,70.9L171,435.63,124.08,326.91l21.36-9.22,75.84,53.4-31.34-72.6,20.38-8.8,46.94,108.72Zm45.24-19.53L233.55,279.67l80.61-34.8,7.94,18.4-58.67,25.32,10.4,24.1,54.59-23.57,7.9,18.32L281.73,331l12.77,29.59,60.74-26.21,7.91,18.32Zm183.78-79.31-56.74-71.95,13.5,90.6L397.2,338l-72.87-97.52,22.46-9.7,48.63,67.61-12.36-83.26,26.12-11.27L461,271.59l-16.09-83.14,22.1-9.54L487.53,299Z" transform="translate(0 -4.26)"/></svg>