<?xml version="1.0" standalone="no"?>
<!DOCTYPE svg PUBLIC "-//W3C//DTD SVG 20010904//EN"
 "http://www.w3.org/TR/2001/REC-SVG-20010904/DTD/svg10.dtd">
<svg version="1.0" xmlns="http://www.w3.org/2000/svg"
 width="980.000000pt" height="772.000000pt" viewBox="0 0 980.000000 772.000000"
 preserveAspectRatio="xMidYMid meet">

<g transform="translate(0.000000,772.000000) scale(0.100000,-0.100000)"
fill="#000000" stroke="none">
<path d="M4800 7695 c-77 -17 -167 -49 -232 -81 -25 -13 -639 -395 -1364 -849
l-1317 -825 -528 0 c-556 0 -586 -2 -719 -48 -263 -91 -486 -310 -580 -569
-62 -173 -61 -135 -58 -1504 l3 -1244 23 -80 c77 -276 255 -492 505 -615 193
-95 182 -94 810 -98 l548 -3 1302 -817 c716 -449 1339 -835 1384 -858 144 -73
221 -89 418 -88 155 0 178 3 258 27 170 52 302 133 423 258 114 119 191 255
236 420 l23 84 0 3055 0 3055 -23 85 c-88 331 -341 587 -677 683 -93 26 -340
33 -435 12z m296 -723 c45 -23 84 -63 110 -112 18 -34 19 -129 22 -2970 2
-2189 0 -2949 -8 -2989 -10 -43 -22 -64 -63 -106 -74 -75 -165 -96 -252 -56
-22 10 -344 208 -715 441 -371 233 -956 599 -1300 815 -721 452 -698 438 -776
467 -58 22 -70 23 -639 28 l-581 5 -49 26 c-63 32 -110 93 -124 161 -8 37 -11
400 -9 1208 3 1088 4 1157 21 1195 23 51 61 91 112 118 39 22 50 22 620 27
564 5 582 6 646 28 85 28 -99 -85 2199 1356 316 198 591 366 610 373 45 17
127 10 176 -15z"/>
<path d="M8640 7544 c-145 -39 -242 -150 -265 -306 -10 -64 9 -143 59 -251
363 -781 578 -1674 637 -2644 15 -255 7 -938 -15 -1173 -79 -858 -275 -1644
-578 -2318 -127 -283 -122 -269 -122 -357 0 -65 5 -91 26 -137 37 -80 105
-149 181 -184 53 -25 75 -29 147 -29 73 0 94 4 148 29 98 46 145 104 231 292
388 845 608 1735 693 2814 16 202 16 976 0 1180 -60 766 -178 1389 -383 2020
-129 396 -328 872 -398 952 -45 51 -116 94 -186 113 -72 18 -103 18 -175 -1z"/>
<path d="M7533 6706 c-103 -34 -176 -98 -222 -196 -22 -46 -26 -69 -26 -145 0
-82 3 -97 37 -170 193 -421 295 -715 378 -1088 152 -684 176 -1460 64 -2147
-83 -512 -214 -943 -428 -1396 -76 -163 -87 -217 -62 -315 58 -225 293 -336
503 -237 85 40 127 94 213 271 585 1215 720 2789 359 4177 -113 435 -350 1034
-455 1150 -56 62 -149 103 -242 107 -47 2 -93 -3 -119 -11z"/>
<path d="M6580 5760 c-190 -33 -325 -222 -291 -406 6 -31 33 -104 60 -163 174
-380 263 -775 278 -1236 16 -516 -83 -1015 -291 -1459 -72 -154 -78 -256 -21
-372 70 -143 255 -225 409 -180 147 43 212 124 333 419 125 306 205 610 253
967 31 225 38 671 16 910 -46 480 -183 977 -363 1323 -77 146 -229 224 -383
197z"/>
</g>
</svg>
