<svg xmlns="http://www.w3.org/2000/svg" id="Capa_1" data-name="Capa 1" viewBox="0 0 512 480.99"><defs><style>.cls-1{fill:#cdb76c}</style></defs><title>t</title><path d="M508.19,20.52A15,15,0,0,0,491,16.76L9,227.76A15,15,0,0,0,8.38,255l115.09,56.6,28.68,172.06a15,15,0,0,0,25.61,8.33l90.86-90.86L398.28,493.7a15,15,0,0,0,23.43-9.27l90-451A15,15,0,0,0,508.19,20.52ZM135.35,284,50.6,242.29,385.42,95.72Zm46.94,44.59L168.34,398.3,153.29,308l184-138.48L186.38,320.9A15.22,15.22,0,0,0,182.29,328.55Zm9.13,107.3,15.74-78.67,36.71,26.22Zm205.41,19.94L220.1,329.56,472.57,76.26Z" class="cls-1" transform="translate(0 -15.5)"/></svg>